<?xml version="1.0" encoding="UTF-8"?>
<svg viewBox="0 0 46 46" xmlns="http://www.w3.org/2000/svg">
 <g fill="#007fff" stroke-width="1.9">
  <path d="m17.622 8.9676c-3.407 0-6.166 3.0197-6.166 6.7449 0 2.1257 0.90104 4.0195 2.3064 5.2558-3.0361 2.042-5.3872 6.4222-6.3062 11.852h10.935c0.76029-4.0824 2.5588-7.3651 4.8673-8.9178-0.81183-0.71419-1.4106-1.7103-1.6675-2.8513-0.035454-0.024662-0.068247-0.053198-0.10389-0.077206 0.026463-0.023258 0.051817-0.047985 0.077915-0.071705-0.070877-0.35949-0.11428-0.73128-0.11428-1.114 0-1.916 0.93096-3.5918 2.3272-4.5168-0.20812-3.5194-2.8842-6.3037-6.1556-6.3037z"/>
  <path d="m29.163 15.823c-2.6664 0-4.8257 2.3633-4.8257 5.2787 0 1.6636 0.70517 3.1458 1.805 4.1134-2.3761 1.5982-4.2162 5.0262-4.9354 9.2755h15.912c-0.71887-4.2463-2.5576-7.6716-4.9314-9.2712 1.101-0.96752 1.805-2.453 1.805-4.1177 0-2.9154-2.1633-5.2787-4.8297-5.2787z"/>
 </g>
</svg>
