<?xml version="1.0" encoding="UTF-8"?>
<svg viewBox="0 0 14 13.000004" xmlns="http://www.w3.org/2000/svg">
 <g transform="translate(-1170.6 -176.58)">
  <path d="m1170.6 176.58h14v13h-14z" fill="#fff"/>
  <path d="m1181.7311,176.58236c-.9643,0-1.7469.78238-1.7469,1.74623s.7826,1.74621 1.7469,1.74621 1.747-.78238 1.7471-1.74621-.7827-1.74623-1.7471-1.74623zm-8.8498,1.86073c-.8433,0-1.5464.67411-1.5463,1.51721s.7029,1.51722 1.5463,1.51721 1.5179-.6741 1.518-1.51721-.6744-1.51721-1.518-1.51721zm4.6112,1.25957c-1.1033,0-2.0048.87238-2.0048,1.97523s.9015,2.00387 2.0048,2.00387 2.0047-.90102 2.0047-2.00387-.9014-1.97524-2.0047-1.97523zm2.6635.85879v.11451c.2269.41755.3722.89438.3722,1.4027 0,1.62666-1.3224,2.94854-2.9499,2.94854-.6103,0-1.1618-.1688-1.6324-.48665l-.028-.0286c-.1507-.10462-.3013-.24194-.4297-.37214s-.2426-.25167-.3438-.40077-.1859-.32313-.2576-.48666c-.074-.16817-.1305-.33246-.1719-.51528-.048-.21039-.086-.43362-.086-.65841 .0001-.0183-.0003-.0104 0-.0286h-.057c-.356.38363-.8678.62978-1.432.62978s-1.0764-.24615-1.432-.62978h-.2863c-1.2233,1.25248-1.2678,6.02723 1.0313,7.53232h10.5856c2.0281-2.36328 1.8883-7.16635.6122-9.02091h-.2291c-.3219.56232-.9084.94468-1.6038.94468-.692,1e-005-1.2806-.3858-1.6039-.94468h-.057l-.0009-5e-005z" fill="#999"/>
 </g>
</svg>
