<?xml version="1.0" encoding="UTF-8"?>
<svg enable-background="new 0 0 512 512" version="1.1" viewBox="0 0 512 512" xml:space="preserve" xmlns="http://www.w3.org/2000/svg">
	<path d="m215.3 55.3c4.8 1.1 9.7 1.9 14.5 3.2 20.2 5.8 36.2 17.4 48.6 34.7-38.2 12.1-64.2 36.6-75 75.3-11 39.6 1.3 73 30 101.4-40.1 26-66.2 60-63.8 110.6-1.4 0.1-2.5 0.3-3.6 0.3-12.9 0-25.8 0.1-38.8 0-20.2-0.1-35.3-13-38.8-32.9-0.1-0.9-0.4-1.7-0.7-2.5v-33.8c0.2-1 0.6-2 0.7-3 1.1-11.9 4.9-23 10.9-33.2 15.1-25.5 37.5-42.1 64.6-52.9 1.8-0.7 3.6-1.4 4.6-1.8-8.6-7.2-17.8-13.8-25.7-21.7-14.9-15-24.4-33.2-24.8-55-0.8-39.8 26.8-75.8 65.4-85.7 4.4-1.1 8.9-2 13.4-3h18.5z"/>
	<path d="m269.9 274.1c-5.9-4.3-12-8.2-17.5-12.9-16.4-13.9-28.8-30.7-32.4-52.4-4.1-24.7 2.2-47.2 18-66.4 22.6-27.6 52.3-38.8 87.2-31.2 36.8 8 59.6 31.9 67.8 68.7 6.3 28.1-3 52.1-22.4 72.3-7.3 7.5-16.3 13.4-24.6 20-0.8 0.6-1.6 1.1-2.9 1.9 4.7 2 9.1 3.6 13.3 5.6 25.6 12 46.5 29.1 59.6 54.7 5.5 10.7 8.6 22.1 8.2 34.3-0.3 9.7-0.1 19.4-0.1 29.2 0 17.3-12.8 32.8-29.8 36-2.6 0.5-5.3 0.7-8 0.7h-159.3c-20.2 0-37.3-15.5-37.9-35.7-0.4-14.4-0.7-29 1.4-43.2 3.3-22.1 16.2-39.4 32.6-54.1 12.8-11.5 27.5-19.9 43.6-25.9 1-0.4 1.9-0.7 2.8-1.1 0.3-0.1 0.4-0.4 0.4-0.5z"/>
</svg>
