<?xml version="1.0" encoding="UTF-8"?>
<svg viewBox="0 0 100 100" xmlns="http://www.w3.org/2000/svg">
 <path d="m56.78125,9.03125c.52923.45715.94354,1.05958 1.4375,1.5625-.66737-.08453-1.3396-.1382-2.03125-.15625-.6151-.35155-1.3451-.56878-2.15625-.65625 .19345-.17812.33268-.42222.53125-.59375-8.14862.8974-13.39474,4.30911-15.375,9.21875-.10812.22444-.19119.45795-.28125.6875-.1209.36877-.29095.70926-.375,1.09375-.22436.88851-.34357,1.7816-.25,2.71875 .00043,2.77285.76733,5.81504 2.53125,9.09375 .29898-.6788.60956-1.26509.90625-1.9375 2.86002,3.75785 8.01447,6.28125 13.9375,6.28125 5.97277,0 11.15552-2.56461 14-6.375 .28731.65131.58551,1.21774.875,1.875 6.42943-11.9508.65893-21.22566-13.75-22.8125zm-28.1875,19.5625c.53823.46493.96697,1.08152 1.46875,1.59375-.67618-.08777-1.3612-.13681-2.0625-.15625-.61638-.3611-1.33855-.56512-2.15625-.65625 .19345-.17812.33268-.42223.53125-.59375-8.13766.89619-13.38826,4.28863-15.375,9.1875-.11674.23985-.21641.47305-.3125.71875-.12561.38436-.28941.75485-.375,1.15625-.20793.86139-.30927,1.74968-.21875,2.65625 .00032,2.773.76721,5.81482 2.53125,9.09375 .29531-.67047.61319-1.242.90625-1.90625 2.86579,3.73758 8.00245,6.25 13.90625,6.25 3.43237,0 6.62091-.84013 9.25-2.28125l-.0625,5c-2.65757-.62853-5.55041-1.0625-8.75-1.0625-10.38198,0-18.8483,3.71727-19.34375,8.40625l-.1875,18.6875c13.16994.88807 25.65571.80048 39,.0625l-.125-18.75c-.01961-.18561-.14331-.3488-.1875-.53125 5.77646.16807 11.63021.18981 17.4375.03125-3.80059,1.53504-6.33265,3.68514-6.59375,6.15625l-.21875,18.6875c13.16994.88807 25.65572.76923 39,.03125l-.125-18.71875c-.49546-4.68898-8.96178-8.40624-19.34375-8.40625-.58811,0-1.08158.13276-1.65625.15625l-.03125-1.90625c.42064.02588.82105.09375 1.25.09375 5.99119,0 11.16151-2.60761 14-6.4375 .29279.66364.61122,1.23641.90625,1.90625 6.42943-11.9508.65894-21.22566-13.75-22.8125 .53823.46493.96697,1.08152 1.46875,1.59375-.67618-.08777-1.3612-.13681-2.0625-.15625-.62202-.36322-1.33019-.56717-2.15625-.65625 .19345-.17812.33268-.42222.53125-.59375-5.08588.5601-9.03495,2.08772-11.8125,4.34375-2.39825-.4874-4.98655-.78125-7.78125-.78125-4.37071,0-8.23025.75789-11.46875,1.875-1.188-6.03194-6.78004-10.26242-16.03125-11.28125z" fill-opacity=".5" fill-rule="evenodd"/>
 <path d="m68.18 20.446c0 7.1639-7.3114 12.978-16.32 12.978s-16.32-5.8142-16.32-12.978 7.3114-12.978 16.32-12.978 16.32 5.8142 16.32 12.978z" fill="#955900" fill-rule="evenodd" stroke="#000" stroke-linejoin="round" stroke-width="1.25"/>
 <path d="m52.303 35.069c-10.382 0-18.842 3.7383-19.337 8.4273l-0.19528 18.687c13.17 0.88807 25.642 0.7755 38.987 0.03752l-0.11744-18.725c-0.49545-4.689-8.955-8.4273-19.337-8.4273z" fill="#0000d1" fill-rule="evenodd" stroke="#000" stroke-linejoin="round" stroke-width="1.25"/>
 <path d="m50.792 6.2559c-6.1518 5.3139-9.7998 13.838-13.755 22.817-6.4294-11.951-0.65438-21.23 13.755-22.817z" fill-rule="evenodd" stroke="#000" stroke-linejoin="round" stroke-width="1.25"/>
 <path d="m53.007 6.0906c6.1518 5.3139 9.7998 13.838 13.755 22.817 6.4294-11.951 0.65438-21.23-13.755-22.817z" fill-rule="evenodd" stroke="#000" stroke-linejoin="round" stroke-width="1.25"/>
 <path d="m49.713 17.275c0 1.3574-1.259 2.4591-2.8104 2.4591s-2.8104-1.1017-2.8104-2.4591 1.259-2.4591 2.8104-2.4591 2.8104 1.1017 2.8104 2.4591z" fill="#fff" fill-rule="evenodd" stroke="#000" stroke-width="1.25"/>
 <path d="m44.911 18.87c-0.15451-1.9174 4.3263-1.7699 3.8628 0.14749-1.0816 1.1799-3.5538 0.58995-3.8628-0.14749z" fill="none" stroke="#000" stroke-linejoin="round" stroke-width="1.25"/>
 <path d="m59.31 16.51c0 1.3574-1.259 2.4591-2.8104 2.4591s-2.8104-1.1017-2.8104-2.4591 1.259-2.4591 2.8104-2.4591 2.8104 1.1017 2.8104 2.4591z" fill="#fff" fill-rule="evenodd" stroke="#000" stroke-width="1.25"/>
 <path d="m54.553 17.964c-0.15451-1.9174 4.3263-1.7699 3.8628 0.14749-1.0816 1.1799-3.5538 0.58995-3.8628-0.14749z" fill="none" stroke="#000" stroke-linejoin="round" stroke-width="1.25"/>
 <path d="m43.984 25.654c2.3177 3.9822 13.597 2.9498 15.142-0.58995" fill="none" stroke="#000" stroke-width="1.25"/>
 <path d="m50.937 36.104c-0.77256-0.29781-14.988 0.79417-16.842 6.7504-0.30902 2.184-0.46354 18.564-0.46354 18.564l19.468 0.6949c9.1162-5.2614-25.803 0-2.1632-26.009z" fill="#fff" fill-opacity=".5" fill-rule="evenodd"/>
 <path d="m53.409 8.2505c-5.5624-6.342-31.52 8.8493-11.434 21.091 8.0346 2.9498-6.4895-24.631 11.434-21.091z" fill="#fff" fill-opacity=".25" fill-rule="evenodd"/>
 <path d="m39.972 40.031c0 7.1639-7.3114 12.978-16.32 12.978s-16.32-5.8142-16.32-12.978 7.3114-12.978 16.32-12.978 16.32 5.8142 16.32 12.978z" fill="#ffd5b7" fill-rule="evenodd" stroke="#000" stroke-linejoin="round" stroke-width="1.25"/>
 <path d="m24.095 54.654c-10.382 0-18.842 3.7383-19.337 8.4273l-0.19528 18.687c13.17 0.88807 25.642 0.7755 38.987 0.03752l-0.11743-18.725c-0.49545-4.689-8.955-8.4273-19.337-8.4273z" fill="#005900" fill-rule="evenodd" stroke="#000" stroke-linejoin="round" stroke-width="1.25"/>
 <path d="m22.584 25.841c-6.1518 5.3139-9.7998 13.838-13.755 22.817-6.4294-11.951-0.65438-21.23 13.755-22.817z" fill="#ffbf00" fill-rule="evenodd" stroke="#000" stroke-linejoin="round" stroke-width="1.25"/>
 <path d="m24.799 25.676c6.1518 5.3139 9.7998 13.838 13.755 22.817 6.4294-11.951 0.65438-21.23-13.755-22.817z" fill="#ffbf00" fill-rule="evenodd" stroke="#000" stroke-linejoin="round" stroke-width="1.25"/>
 <path d="m21.505 36.861c0 1.3574-1.259 2.4591-2.8104 2.4591s-2.8104-1.1017-2.8104-2.4591 1.259-2.4591 2.8104-2.4591 2.8104 1.1017 2.8104 2.4591z" fill="#fff" fill-rule="evenodd" stroke="#000" stroke-width="1.25"/>
 <path d="m16.703 38.455c-0.15451-1.9174 4.3263-1.7699 3.8628 0.14749-1.0816 1.1799-3.5538 0.58995-3.8628-0.14749z" fill="none" stroke="#000" stroke-linejoin="round" stroke-width="1.25"/>
 <path d="m31.102 36.095c0 1.3574-1.259 2.4591-2.8104 2.4591s-2.8104-1.1017-2.8104-2.4591 1.259-2.4591 2.8104-2.4591 2.8104 1.1017 2.8104 2.4591z" fill="#fff" fill-rule="evenodd" stroke="#000" stroke-width="1.25"/>
 <path d="m26.345 37.549c-0.15451-1.9174 4.3263-1.7699 3.8628 0.14749-1.0816 1.1799-3.5538 0.58995-3.8628-0.14749z" fill="none" stroke="#000" stroke-linejoin="round" stroke-width="1.25"/>
 <path d="m15.776 45.24c2.3177 3.9822 13.597 2.9498 15.142-0.58995" fill="none" stroke="#000" stroke-width="1.25"/>
 <path d="m22.729 55.69c-0.77256-0.29781-14.988 0.79417-16.842 6.7504-0.30902 2.184-0.46353 18.564-0.46353 18.564l19.468 0.6949c9.1162-5.2614-25.803 0-2.1632-26.009z" fill="#fff" fill-opacity=".5" fill-rule="evenodd"/>
 <path d="m25.201 27.836c-5.5624-6.342-31.52 8.8493-11.434 21.091 8.0346 2.9498-6.4895-24.631 11.434-21.091z" fill="#fff" fill-opacity=".25" fill-rule="evenodd"/>
 <path d="m89.295 45.685c0 7.1639-7.3114 12.978-16.32 12.978s-16.32-5.8142-16.32-12.978 7.3114-12.978 16.32-12.978 16.32 5.8142 16.32 12.978z" fill="#ffeeb7" fill-rule="evenodd" stroke="#000" stroke-linejoin="round" stroke-width="1.25"/>
 <path d="m73.418 60.309c-10.382 0-18.842 3.7383-19.337 8.4273l-0.19528 18.687c13.17 0.88807 25.642 0.77551 38.987 0.03752l-0.11743-18.725c-0.49545-4.689-8.955-8.4273-19.337-8.4273z" fill="#8200d1" fill-rule="evenodd" stroke="#000" stroke-linejoin="round" stroke-width="1.25"/>
 <path d="m71.907 31.495c-6.1518 5.3139-9.7998 13.838-13.755 22.817-6.4294-11.951-0.65438-21.23 13.755-22.817z" fill-rule="evenodd" stroke="#000" stroke-linejoin="round" stroke-width="1.25"/>
 <path d="m74.122 31.33c6.1518 5.3139 9.7998 13.838 13.755 22.817 6.4294-11.951 0.65438-21.23-13.755-22.817z" fill-rule="evenodd" stroke="#000" stroke-linejoin="round" stroke-width="1.25"/>
 <path d="m70.828 42.515c0 1.3574-1.259 2.4591-2.8104 2.4591s-2.8104-1.1017-2.8104-2.4591 1.259-2.4591 2.8104-2.4591 2.8104 1.1017 2.8104 2.4591z" fill="#fff" fill-rule="evenodd" stroke="#000" stroke-width="1.25"/>
 <path d="m66.026 44.109c-0.15451-1.9174 4.3263-1.7699 3.8628 0.14749-1.0816 1.1799-3.5538 0.58995-3.8628-0.14749z" fill="none" stroke="#000" stroke-linejoin="round" stroke-width="1.25"/>
 <path d="m80.425 41.749c0 1.3574-1.259 2.4591-2.8104 2.4591s-2.8104-1.1017-2.8104-2.4591 1.259-2.4591 2.8104-2.4591 2.8104 1.1017 2.8104 2.4591z" fill="#fff" fill-rule="evenodd" stroke="#000" stroke-width="1.25"/>
 <path d="m75.668 43.204c-0.15451-1.9174 4.3263-1.7699 3.8628 0.14749-1.0816 1.1799-3.5538 0.58995-3.8628-0.14749z" fill="none" stroke="#000" stroke-linejoin="round" stroke-width="1.25"/>
 <path d="m65.099 50.894c2.3177 3.9822 13.597 2.9498 15.142-0.58995" fill="none" stroke="#000" stroke-width="1.25"/>
 <path d="m72.052 61.344c-0.77256-0.29781-14.988 0.79417-16.842 6.7504-0.30902 2.184-0.46354 18.564-0.46354 18.564l19.468 0.6949c9.1162-5.2614-25.803 0-2.1632-26.009z" fill="#fff" fill-opacity=".5" fill-rule="evenodd"/>
 <path d="m74.524 33.49c-5.5624-6.342-31.52 8.8493-11.434 21.091 8.0346 2.9498-6.4895-24.631 11.434-21.091z" fill="#fff" fill-opacity=".25" fill-rule="evenodd"/>
</svg>
